<svg id="Layer_1" data-name="Layer 1" xmlns="http://www.w3.org/2000/svg" viewBox="0 0 27.86 42.64"><defs><style>.cls-1{fill:#231f20;}</style></defs><title>Logo 7.25.20</title><path class="cls-1" d="M25.82,17.26a2.1,2.1,0,0,1-1.65-.91A10.87,10.87,0,0,0,15,11.68c-6.49,0-10.91,4.79-10.91,11.69S8.55,35.06,15,35.06c4.21,0,6.73-1.69,9.17-4.79a1.93,1.93,0,0,1,1.57-.79,1.88,1.88,0,0,1,1.9,1.91,2.24,2.24,0,0,1-.38,1.19A14.53,14.53,0,0,1,15,38.74c-8.68,0-15-6.53-15-15.37S6.36,8.05,15,8.05a14.45,14.45,0,0,1,12.31,6.23,2.11,2.11,0,0,1,.33,1.08A1.87,1.87,0,0,1,25.82,17.26Z"/></svg>