<svg id="Layer_1" data-name="Layer 1" xmlns="http://www.w3.org/2000/svg" viewBox="0 0 27.86 42.64"><defs><style>.cls-1{fill:#fff;}.cls-2{fill:#037854;}</style></defs><title>white</title><path class="cls-1" d="M23.56,28H7A7.52,7.52,0,0,0,14.3,34.8a8,8,0,0,0,6.22-2.69,2.14,2.14,0,0,1,1.54-.8,1.86,1.86,0,0,1,1.86,1.94,2.14,2.14,0,0,1-.58,1.37,11.87,11.87,0,0,1-8.82,3.93c-6.7,0-11.77-5.12-11.77-12S7.82,14.42,14.39,14.42c6.31,0,11.11,4.94,11.11,11.64A1.88,1.88,0,0,1,23.56,28Zm-9.13-9.93a7.26,7.26,0,0,0-7.36,6.35H21.31A6.81,6.81,0,0,0,14.43,18.08Z"/><path class="cls-2" d="M13,12.13a2,2,0,0,1-1.46-.61,2.06,2.06,0,0,1,0-2.92l7.24-7.24a2.06,2.06,0,0,1,2.92,2.92l-7.24,7.24A2,2,0,0,1,13,12.13Z"/></svg>