<svg id="Layer_1" data-name="Layer 1" xmlns="http://www.w3.org/2000/svg" viewBox="0 0 116.87 42.64"><defs><style>.cls-1{fill:#231f20;}.cls-2{fill:#037854;}</style></defs><title>linelogo</title><path class="cls-1" d="M104.81,15.48c4.31,0,7.74,1.87,9.57,4.83A14.89,14.89,0,0,1,116.07,28V38.69a2.21,2.21,0,0,1-4.41,0V27.76a12.36,12.36,0,0,0-.56-4.22c-.9-2.48-3.1-4.08-6.43-4.08a7.86,7.86,0,0,0-6.84,3.61,9.4,9.4,0,0,0-1.41,5.07V38.69a2.21,2.21,0,0,1-4.41,0V27.16a11.84,11.84,0,0,1,1.72-6.05A11,11,0,0,1,100,16.32a15.11,15.11,0,0,1,4.84-.84m0-.15a15.29,15.29,0,0,0-4.89.84A11.29,11.29,0,0,0,93.6,21a12,12,0,0,0-1.74,6.13V38.69a2.36,2.36,0,0,0,4.71,0V28.14a9.24,9.24,0,0,1,1.38-5,7.75,7.75,0,0,1,6.72-3.54c3.13,0,5.36,1.42,6.28,4a12,12,0,0,1,.56,4.17V38.69a2.36,2.36,0,0,0,4.71,0V28a14.85,14.85,0,0,0-1.71-7.72c-1.93-3.12-5.47-4.9-9.7-4.9Z"/><path class="cls-1" d="M17.23,8.58a15.35,15.35,0,0,1,13.09,6.63,2.18,2.18,0,0,1,.35,1.14,2,2,0,0,1-2,2,2.26,2.26,0,0,1-1.76-1,11.55,11.55,0,0,0-9.7-5c-6.9,0-11.6,5.1-11.6,12.44s4.7,12.43,11.6,12.43c4.48,0,7.16-1.8,9.75-5.1a2.06,2.06,0,0,1,1.67-.83,2,2,0,0,1,2,2,2.42,2.42,0,0,1-.4,1.27,15.47,15.47,0,0,1-13,6.54c-9.23,0-16-6.94-16-16.33S8,8.58,17.23,8.58m0-.15c-9.36,0-16.14,6.92-16.14,16.45S7.87,41.36,17.23,41.36a15.68,15.68,0,0,0,13.16-6.6,2.58,2.58,0,0,0,.43-1.36,2.15,2.15,0,0,0-2.17-2.17,2.23,2.23,0,0,0-1.79.89c-2.38,3-4.93,5-9.63,5-6.74,0-11.45-5-11.45-12.28s4.71-12.29,11.45-12.29a11.32,11.32,0,0,1,9.58,4.91,2.39,2.39,0,0,0,1.88,1,2.13,2.13,0,0,0,2.13-2.17,2.28,2.28,0,0,0-.38-1.22,15.51,15.51,0,0,0-13.21-6.7Z"/><path class="cls-1" d="M37.58,6.87a2.21,2.21,0,0,1,2.2,2.21V19.25a10.48,10.48,0,0,1,8.39-3.89c4.32,0,7.74,1.88,9.57,4.83a14.79,14.79,0,0,1,1.69,7.64V38.57a2.21,2.21,0,1,1-4.41,0V27.65a12.29,12.29,0,0,0-.56-4.22c-.89-2.49-3.1-4.08-6.43-4.08A7.84,7.84,0,0,0,41.19,23,9.34,9.34,0,0,0,39.78,28V38.57a2.21,2.21,0,1,1-4.41,0V9.08a2.21,2.21,0,0,1,2.21-2.21m0-.15a2.36,2.36,0,0,0-2.36,2.36V38.57a2.36,2.36,0,1,0,4.71,0V28a9.23,9.23,0,0,1,1.38-5A7.72,7.72,0,0,1,48,19.5c3.13,0,5.36,1.41,6.29,4a12.24,12.24,0,0,1,.55,4.17V38.57a2.36,2.36,0,1,0,4.71,0V27.83a14.85,14.85,0,0,0-1.71-7.72c-1.93-3.11-5.47-4.9-9.7-4.9a10.59,10.59,0,0,0-8.24,3.63V9.08a2.36,2.36,0,0,0-2.35-2.36Z"/><path class="cls-1" d="M75.79,15.36c6.7,0,11.82,5.25,11.82,12.38a2,2,0,0,1-2.07,2.06H67.91A8,8,0,0,0,75.69,37a8.56,8.56,0,0,0,6.62-2.86A2.26,2.26,0,0,1,84,33.32a2,2,0,0,1,2,2.06,2.28,2.28,0,0,1-.61,1.46A12.64,12.64,0,0,1,75.93,41c-7.13,0-12.52-5.44-12.52-12.8S68.8,15.36,75.79,15.36M68,26H83.15a7.25,7.25,0,0,0-7.31-6.76A7.72,7.72,0,0,0,68,26m7.79-10.8c-7.14,0-12.53,5.59-12.53,13s5.45,12.95,12.67,12.95a12.78,12.78,0,0,0,9.49-4.22,2.49,2.49,0,0,0,.65-1.56A2.12,2.12,0,0,0,84,33.17a2.4,2.4,0,0,0-1.75.89,8.42,8.42,0,0,1-6.51,2.81A7.87,7.87,0,0,1,68.08,30H85.54a2.14,2.14,0,0,0,2.22-2.21c0-7.14-5.15-12.53-12-12.53ZM68.18,25.86a7.55,7.55,0,0,1,7.66-6.46A7.1,7.1,0,0,1,83,25.86Z"/><path class="cls-2" d="M74.27,12.92a2.22,2.22,0,0,1-1.55-.64,2.2,2.2,0,0,1,0-3.11l7.7-7.7a2.2,2.2,0,0,1,3.1,3.11l-7.7,7.7A2.22,2.22,0,0,1,74.27,12.92Z"/></svg>