<svg id="Layer_1" data-name="Layer 1" xmlns="http://www.w3.org/2000/svg" viewBox="0 0 116.87 42.64"><defs><style>.cls-1{fill:#231f20;}.cls-2{fill:#037854;}</style></defs><title>Logo</title><path class="cls-1" d="M116.07,38.69a2.21,2.21,0,0,1-4.41,0V27.76a12.36,12.36,0,0,0-.56-4.22c-.9-2.48-3.1-4.08-6.43-4.08a7.86,7.86,0,0,0-6.84,3.61,9.4,9.4,0,0,0-1.41,5.07V38.69a2.21,2.21,0,0,1-4.41,0V27.16a11.84,11.84,0,0,1,1.72-6.05A11,11,0,0,1,100,16.32a15.11,15.11,0,0,1,4.84-.84c4.31,0,7.74,1.87,9.57,4.83A14.89,14.89,0,0,1,116.07,28Z"/><path class="cls-1" d="M28.69,18.37a2.26,2.26,0,0,1-1.76-1,11.55,11.55,0,0,0-9.7-5c-6.9,0-11.6,5.1-11.6,12.44s4.7,12.43,11.6,12.43c4.48,0,7.16-1.8,9.75-5.1a2.06,2.06,0,0,1,1.67-.83,2,2,0,0,1,2,2,2.42,2.42,0,0,1-.4,1.27,15.47,15.47,0,0,1-13,6.54c-9.23,0-16-6.94-16-16.33S8,8.58,17.23,8.58a15.35,15.35,0,0,1,13.09,6.63,2.18,2.18,0,0,1,.35,1.14A2,2,0,0,1,28.69,18.37Z"/><path class="cls-1" d="M59.43,38.57a2.21,2.21,0,1,1-4.41,0V27.65a12.29,12.29,0,0,0-.56-4.22c-.89-2.49-3.1-4.08-6.43-4.08A7.84,7.84,0,0,0,41.19,23,9.34,9.34,0,0,0,39.78,28V38.57a2.21,2.21,0,1,1-4.41,0V9.08a2.21,2.21,0,1,1,4.41,0V19.25a10.48,10.48,0,0,1,8.39-3.89c4.32,0,7.74,1.88,9.57,4.83a14.79,14.79,0,0,1,1.69,7.64Z"/><path class="cls-1" d="M85.54,29.8H67.91A8,8,0,0,0,75.69,37a8.56,8.56,0,0,0,6.62-2.86A2.26,2.26,0,0,1,84,33.32a2,2,0,0,1,2,2.06,2.28,2.28,0,0,1-.61,1.46A12.64,12.64,0,0,1,75.93,41c-7.13,0-12.52-5.44-12.52-12.8S68.8,15.36,75.79,15.36c6.7,0,11.82,5.25,11.82,12.38A2,2,0,0,1,85.54,29.8Zm-9.7-10.55A7.72,7.72,0,0,0,68,26H83.15A7.25,7.25,0,0,0,75.84,19.25Z"/><path class="cls-2" d="M74.27,12.92a2.22,2.22,0,0,1-1.55-.64,2.2,2.2,0,0,1,0-3.11l7.7-7.7a2.2,2.2,0,0,1,3.1,3.11l-7.7,7.7A2.22,2.22,0,0,1,74.27,12.92Z"/></svg>