<svg id="Layer_1" data-name="Layer 1" xmlns="http://www.w3.org/2000/svg" viewBox="0 0 27.86 42.64"><defs><style>.cls-1{fill:#231f20;}</style></defs><title>Logo 7.25.20</title><path class="cls-1" d="M24.41,36.36a2.08,2.08,0,1,1-4.15,0V26.09a11.46,11.46,0,0,0-.53-4c-.84-2.34-2.91-3.84-6-3.84a7.39,7.39,0,0,0-6.44,3.4,8.88,8.88,0,0,0-1.32,4.76v9.92a2.08,2.08,0,1,1-4.15,0V25.52A11.17,11.17,0,0,1,3.4,19.83a10.43,10.43,0,0,1,5.87-4.51,14.14,14.14,0,0,1,4.55-.79c4.06,0,7.28,1.77,9,4.55a13.93,13.93,0,0,1,1.59,7.18Z"/></svg>